<?xml version="1.0" encoding="utf-8"?>
<!-- Generator: Adobe Illustrator 16.0.1, SVG Export Plug-In . SVG Version: 6.00 Build 0)  -->
<!DOCTYPE svg PUBLIC "-//W3C//DTD SVG 1.1//EN" "http://www.w3.org/Graphics/SVG/1.1/DTD/svg11.dtd">
<svg version="1.1" id="Слой_1" xmlns="http://www.w3.org/2000/svg" xmlns:xlink="http://www.w3.org/1999/xlink" x="0px" y="0px"
	 width="200px" height="200px" viewBox="0 0 200 200" enable-background="new 0 0 200 200" xml:space="preserve">
<g>
	<path fill="#82888A" d="M132.914,199.35c-0.115,0-0.23-0.023-0.34-0.07l-26.838-11.688l-3.605,5.661
		c-0.156,0.245-0.427,0.394-0.717,0.394h-3.061c-0.297,0-0.573-0.155-0.727-0.409l-3.491-5.758L67.311,199.05
		c-0.257,0.112-0.556,0.089-0.794-0.064c-0.238-0.151-0.385-0.411-0.392-0.693l-0.47-17.908c-0.007-0.276,0.121-0.54,0.343-0.705
		l23.638-17.566c-1.715-7.449-5.701-42.391-6.461-49.134L2.257,142.041c-0.256,0.094-0.542,0.057-0.767-0.099
		c-0.225-0.154-0.363-0.407-0.37-0.68l-0.47-18.481c-0.008-0.305,0.148-0.591,0.41-0.749l29.564-17.891v-0.662
		c0-5.566,1.068-10.626,2.931-13.881c0.163-0.284,0.464-0.454,0.802-0.425c1.679,0.126,3.086,0.223,4.638,0.223
		c1.138,0,2.458-0.07,4.152-0.222c0.338-0.031,0.656,0.14,0.819,0.435c0.808,1.456,1.465,3.25,1.96,5.343l10.087-6.094v-0.319
		c0-5.251,1.091-10.432,2.919-13.86c0.158-0.297,0.472-0.476,0.814-0.448c1.498,0.113,3.025,0.113,4.642,0.113
		c1.36,0,2.901,0,4.152-0.112c0.327-0.032,0.641,0.132,0.808,0.415c0.804,1.361,1.46,3.05,1.956,5.034l10.101-6.024
		c0.178-0.739,0.056-3.46-0.073-6.332c-0.597-13.355-1.996-44.63,14.853-64.092c1.297-1.51,2.321-2.581,3.673-2.581
		c1.28,0,2.412,0.984,3.718,2.461c17.06,19.492,15.608,50.927,14.989,64.35c-0.132,2.863-0.257,5.576-0.081,6.312l9.406,5.683
		c0.453-1.71,1.065-3.339,1.793-4.764c0.155-0.306,0.469-0.487,0.826-0.46c1.378,0.112,2.791,0.112,4.287,0.112
		c1.615,0,3.141,0,4.634-0.113c0.333-0.025,0.656,0.15,0.814,0.447c1.83,3.425,2.922,8.607,2.922,13.861
		c0,0.051-0.004,0.102-0.014,0.152l10.101,6.04c0.454-1.897,1.077-3.641,1.822-5.097c0.157-0.306,0.469-0.491,0.826-0.459
		c1.543,0.126,2.839,0.223,4.279,0.223c1.672,0,3.251-0.119,4.644-0.223c0.355-0.026,0.664,0.156,0.82,0.46
		c1.851,3.613,2.911,8.703,2.911,13.965c0,0.079,0,0.17-0.006,0.271l30.388,18.271c0.264,0.159,0.421,0.448,0.411,0.756
		l-0.591,18.485c-0.009,0.271-0.146,0.522-0.371,0.676c-0.227,0.152-0.509,0.189-0.766,0.097l-80.795-28.952
		c-0.778,6.725-4.85,41.604-6.47,49.02l23.649,17.576c0.224,0.167,0.352,0.432,0.343,0.71l-0.586,18.021
		c-0.009,0.282-0.157,0.541-0.396,0.691C133.23,199.306,133.072,199.35,132.914,199.35z M105.409,185.672
		c0.114,0,0.229,0.022,0.34,0.07l26.356,11.479l0.53-16.324l-23.739-17.644c-0.276-0.206-0.401-0.558-0.317-0.892
		c1.615-6.37,6.632-49.979,6.682-50.418c0.03-0.258,0.176-0.488,0.396-0.625c0.222-0.137,0.492-0.167,0.736-0.078l80.704,28.919
		l0.538-16.819l-30.487-18.331c-0.388-0.233-0.524-0.731-0.311-1.131c0.021-0.037,0.021-0.171,0.021-0.279
		c0-4.686-0.921-9.374-2.479-12.687c-1.277,0.094-2.69,0.185-4.197,0.185c-1.382,0-2.709-0.092-3.84-0.182
		c-0.712,1.519-1.287,3.343-1.675,5.315c-0.054,0.271-0.235,0.5-0.488,0.612c-0.253,0.113-0.545,0.095-0.782-0.047l-11.636-6.958
		c-0.312-0.186-0.47-0.549-0.396-0.904l0.103-0.484c-0.012-4.711-0.93-9.319-2.475-12.487c-1.37,0.08-2.748,0.08-4.196,0.08
		c-1.327,0-2.591,0-3.846-0.077c-0.71,1.5-1.286,3.215-1.677,4.998c-0.059,0.268-0.242,0.491-0.494,0.599
		c-0.251,0.108-0.54,0.089-0.775-0.053l-10.576-6.389c-0.86-0.541-0.829-1.932-0.562-7.739c0.61-13.219,2.039-44.174-14.567-63.149
		c-1.135-1.284-1.912-1.883-2.441-1.883c-0.565,0-1.303,0.73-2.385,1.991c-16.408,18.953-15.03,49.754-14.442,62.906
		c0.261,5.824,0.29,7.219-0.56,7.751l-11.299,6.739c-0.236,0.141-0.525,0.159-0.777,0.048c-0.252-0.111-0.435-0.336-0.49-0.605
		c-0.431-2.073-1.024-3.824-1.764-5.215c-1.2,0.077-2.545,0.077-3.752,0.077c-1.45,0-2.83,0-4.203-0.08
		c-1.553,3.19-2.472,7.836-2.472,12.575v0.799c0,0.298-0.156,0.574-0.411,0.728l-11.516,6.958c-0.236,0.143-0.53,0.163-0.783,0.05
		c-0.254-0.112-0.437-0.34-0.491-0.612c-0.433-2.188-1.031-4.05-1.78-5.543c-3.491,0.289-5.385,0.182-7.957-0.007
		c-1.563,3.019-2.453,7.556-2.453,12.57v1.142c0,0.298-0.156,0.573-0.41,0.728L2.362,123.231l0.427,16.813l80.822-29.028
		c0.246-0.087,0.517-0.059,0.737,0.078c0.221,0.138,0.366,0.369,0.395,0.627c0.049,0.441,4.948,44.143,6.673,50.514
		c0.091,0.338-0.033,0.696-0.313,0.905L67.366,180.78l0.425,16.211l26.352-11.366c0.388-0.169,0.843-0.024,1.063,0.34l3.626,5.981
		h2.116l3.745-5.881C104.853,185.813,105.126,185.672,105.409,185.672z"/>
</g>
</svg>
