<?xml version="1.0" encoding="utf-8"?>
<!-- Generator: Adobe Illustrator 16.0.1, SVG Export Plug-In . SVG Version: 6.00 Build 0)  -->
<!DOCTYPE svg PUBLIC "-//W3C//DTD SVG 1.1//EN" "http://www.w3.org/Graphics/SVG/1.1/DTD/svg11.dtd">
<svg version="1.1" id="Слой_1" xmlns="http://www.w3.org/2000/svg" xmlns:xlink="http://www.w3.org/1999/xlink" x="0px" y="0px"
	 width="200px" height="200px" viewBox="0 0 200 200" enable-background="new 0 0 200 200" xml:space="preserve">
<g>
	<path fill="#82888A" d="M131.744,199c-0.542,0-1.086-0.11-1.597-0.333l-23.394-10.187l-2.017,3.167
		c-0.734,1.152-2.007,1.851-3.374,1.851h-2.951c-1.398,0-2.695-0.73-3.42-1.926l-1.931-3.185l-23.329,10.063
		c-1.219,0.525-2.619,0.413-3.738-0.303c-1.119-0.715-1.81-1.938-1.845-3.266l-0.453-17.272c-0.034-1.302,0.567-2.538,1.613-3.315
		l21.185-15.743c-1.589-8.788-4.236-31.277-5.428-41.684L6.805,143.54c-1.209,0.434-2.552,0.263-3.611-0.464
		c-1.06-0.726-1.707-1.915-1.739-3.199l-0.453-17.824c-0.037-1.436,0.699-2.78,1.928-3.523l26.995-16.336
		c0.145-5.456,1.305-10.437,3.232-13.805c0.766-1.339,2.238-2.118,3.771-2.002c1.288,0.097,2.749,0.207,4.235,0.207
		c1.307,0,2.75-0.115,3.722-0.202c1.576-0.138,3.087,0.662,3.854,2.045c0.326,0.588,0.629,1.219,0.909,1.892l4.776-2.885
		c0.187-5.095,1.315-9.898,3.161-13.36c0.746-1.399,2.24-2.218,3.83-2.107c1.326,0.1,2.676,0.1,4.239,0.1
		c1.306,0,2.656,0,3.723-0.095c1.534-0.13,3.014,0.622,3.799,1.95c0.318,0.538,0.615,1.116,0.89,1.732l4.904-2.925
		c-0.016-1.097-0.086-2.666-0.15-4.109c-0.593-13.259-1.982-44.31,15.098-64.038C95.21,3.081,96.997,1,99.863,1
		c2.574,0,4.461,1.743,5.969,3.447c17.306,19.773,15.865,50.986,15.251,64.315c-0.066,1.441-0.139,3.007-0.156,4.1l4.26,2.573
		c0.193-0.443,0.396-0.874,0.609-1.29c0.736-1.442,2.257-2.295,3.887-2.168c1.201,0.098,2.441,0.098,3.878,0.098
		c1.496,0,2.909,0,4.23-0.1c1.598-0.114,3.083,0.707,3.829,2.104c1.828,3.423,2.954,8.162,3.159,13.198l4.781,2.858
		c0.229-0.553,0.472-1.083,0.728-1.583c0.738-1.441,2.276-2.292,3.886-2.163c1.177,0.096,2.511,0.205,3.869,0.205
		c1.483,0,2.948-0.11,4.241-0.207c1.61-0.124,3.125,0.733,3.858,2.165c1.82,3.551,2.937,8.354,3.128,13.368l27.791,16.709
		c1.242,0.746,1.982,2.106,1.937,3.556l-0.569,17.828c-0.041,1.278-0.69,2.46-1.748,3.18c-1.058,0.719-2.396,0.89-3.6,0.458
		l-74.155-26.572c-1.217,10.384-3.911,32.845-5.439,41.568l21.209,15.762c1.053,0.782,1.654,2.03,1.612,3.341l-0.565,17.382
		c-0.043,1.325-0.74,2.543-1.86,3.251C133.232,198.791,132.49,199,131.744,199z M105.219,179.448c0.535,0,1.077,0.107,1.595,0.333
		l21.124,9.198l0.306-9.399l-21.56-16.022c-1.301-0.967-1.89-2.622-1.492-4.193c1.249-4.929,5.021-36.471,6.368-48.208
		c0.139-1.213,0.825-2.296,1.861-2.941c1.04-0.645,2.313-0.779,3.462-0.368l73.726,26.418l0.318-9.99l-27.804-16.718
		c-1.532-0.921-2.233-2.716-1.824-4.381c-0.032-3.117-0.505-6.159-1.313-8.627c-1.132,0.049-2.393,0.057-3.527,0.01
		c-0.219,0.69-0.432,1.495-0.613,2.418c-0.251,1.278-1.108,2.353-2.298,2.883s-2.561,0.447-3.68-0.221l-11.223-6.709
		c-1.466-0.876-2.214-2.587-1.861-4.258l0.027-0.131c-0.042-3.441-0.614-6.357-1.32-8.474c-1.159,0.015-2.361,0.014-3.525,0.002
		c-0.244,0.721-0.454,1.477-0.623,2.25c-0.276,1.261-1.143,2.311-2.328,2.821c-1.186,0.507-2.544,0.416-3.648-0.251l-10.2-6.161
		c-2.479-1.558-2.377-3.769-2.074-10.334c0.569-12.336,1.9-41.185-13.155-58.536C84.975,27.195,86.261,55.974,86.811,68.269
		c0.302,6.756,0.393,8.794-2.028,10.313l-10.958,6.537c-1.111,0.663-2.473,0.748-3.658,0.227c-1.184-0.52-2.044-1.581-2.307-2.847
		c-0.184-0.884-0.404-1.7-0.653-2.429c-1.228,0.013-2.367,0.012-3.49-0.002c-0.732,2.2-1.321,5.263-1.321,8.879v0.771
		c0,1.401-0.733,2.699-1.932,3.424l-11.107,6.71c-1.117,0.675-2.493,0.763-3.685,0.235c-1.193-0.527-2.054-1.603-2.307-2.883
		c-0.189-0.957-0.417-1.845-0.678-2.643c-1.187,0.05-2.423,0.037-3.538-0.013c-0.791,2.367-1.241,5.484-1.241,8.81v1.102
		c0,1.399-0.731,2.697-1.929,3.422L9.058,124.171l0.253,9.969l73.808-26.51c1.15-0.412,2.428-0.277,3.468,0.37
		c1.039,0.647,1.724,1.734,1.859,2.95c1.9,16.988,5.157,43.854,6.345,48.242c0.43,1.588-0.155,3.275-1.475,4.257l-21.568,16.028
		l0.244,9.286l21.099-9.102c1.836-0.791,3.97-0.107,5.005,1.599l1.839,3.034l1.908-2.996
		C102.598,180.115,103.887,179.448,105.219,179.448z"/>
</g>
</svg>
