<?xml version="1.0" standalone="no"?>
<!DOCTYPE svg PUBLIC "-//W3C//DTD SVG 20010904//EN"
 "http://www.w3.org/TR/2001/REC-SVG-20010904/DTD/svg10.dtd">
<svg version="1.0" xmlns="http://www.w3.org/2000/svg"
 width="1280.000000pt" height="1280.000000pt" viewBox="0 0 1280.000000 1280.000000"
 preserveAspectRatio="xMidYMid meet">
<metadata>
Created by potrace 1.11, written by Peter Selinger 2001-2013
</metadata>
<g transform="translate(0.000000,1280.000000) scale(0.100000,-0.100000)"
fill="#000000" stroke="none">
<path d="M6338 10822 c-46 -51 -92 -165 -133 -330 -32 -128 -85 -404 -85 -444
0 -17 18 -18 280 -18 267 0 280 1 280 19 0 38 -61 352 -90 465 -56 218 -126
346 -190 346 -19 0 -38 -11 -62 -38z"/>
<path d="M6090 9843 c0 -5 -9 -91 -19 -193 -97 -924 -113 -2239 -41 -3280 13
-180 38 -464 45 -507 l6 -32 42 15 c158 57 396 57 554 0 l42 -15 6 32 c7 42
31 324 45 512 75 1075 53 2487 -52 3378 l-11 97 -309 0 c-169 0 -308 -3 -308
-7z"/>
<path d="M5639 7625 c-348 -101 -680 -275 -969 -509 -107 -85 -313 -294 -402
-406 -313 -394 -515 -872 -572 -1350 -34 -282 -29 -533 14 -785 24 -139 61
-295 70 -295 4 0 99 50 210 112 l202 112 -6 35 c-3 20 -13 72 -22 116 -21 109
-30 481 -15 612 53 450 237 873 533 1218 257 300 601 533 983 664 104 36 140
53 139 65 0 9 -1 113 -2 231 l-2 215 -22 0 c-13 -1 -75 -16 -139 -35z"/>
<path d="M6998 7450 c-1 -115 -2 -220 -2 -231 -1 -19 17 -28 137 -69 732 -253
1281 -850 1466 -1595 43 -173 53 -258 58 -480 5 -214 2 -256 -33 -491 l-6 -42
68 -37 c38 -21 129 -71 202 -112 72 -40 136 -73 140 -73 5 0 19 44 31 98 78
344 88 691 31 1042 -91 557 -354 1066 -759 1470 -278 277 -573 471 -931 613
-119 47 -347 117 -381 117 -18 0 -19 -11 -21 -210z"/>
<path d="M5818 6011 c-177 -103 -336 -266 -431 -441 -48 -88 -91 -200 -111
-289 -16 -69 -39 -262 -32 -268 2 -2 24 5 50 16 44 19 46 22 46 60 0 56 26
187 54 267 73 214 223 411 410 536 50 33 92 61 93 62 1 1 -1 23 -5 49 l-7 47
-67 -39z"/>
<path d="M6908 6016 c-1 -20 -2 -42 -2 -50 -1 -7 40 -41 90 -74 244 -164 413
-433 456 -726 l12 -85 38 -16 c21 -8 41 -15 43 -15 21 0 -9 209 -46 321 -88
269 -287 512 -531 649 l-58 32 -2 -36z"/>
<path d="M6307 5610 c-124 -20 -260 -93 -347 -187 -222 -241 -211 -608 23
-830 158 -150 360 -205 561 -153 112 28 190 73 277 160 156 153 213 356 159
564 -28 109 -74 190 -155 272 -136 137 -332 203 -518 174z m166 -374 c118 -42
181 -165 147 -287 -13 -48 -75 -118 -124 -140 -53 -24 -139 -24 -191 0 -51 23
-111 89 -124 138 -42 151 67 302 219 302 19 0 52 -6 73 -13z"/>
<path d="M5320 4859 c-680 -309 -1572 -793 -2315 -1257 -347 -216 -914 -600
-978 -661 -17 -16 -11 -29 135 -278 141 -243 153 -260 174 -253 172 66 855
395 1205 580 563 299 1151 643 1644 962 203 132 536 358 590 402 l30 24 -51
53 c-65 70 -107 132 -149 222 -36 75 -75 210 -75 259 0 20 -5 28 -17 27 -10 0
-97 -36 -193 -80z"/>
<path d="M7270 4912 c0 -49 -39 -184 -75 -259 -42 -90 -84 -152 -149 -222
l-51 -53 30 -24 c56 -45 390 -272 605 -411 413 -267 915 -565 1395 -828 419
-229 1123 -574 1425 -699 l35 -14 153 261 c146 249 152 261 135 278 -32 31
-314 228 -548 384 -514 341 -1074 675 -1685 1005 -404 218 -1211 610 -1255
610 -10 0 -15 -10 -15 -28z"/>
<path d="M7010 4153 c-69 -54 -235 -130 -345 -160 -89 -23 -118 -26 -265 -26
-146 0 -176 3 -262 26 -103 27 -240 87 -312 135 l-44 30 -36 -26 c-20 -14 -36
-29 -36 -33 0 -13 159 -107 239 -140 41 -17 118 -43 170 -57 87 -23 113 -26
281 -26 169 0 194 3 283 27 54 14 138 44 187 66 87 38 260 145 260 160 0 6
-38 38 -65 53 -5 3 -30 -10 -55 -29z"/>
<path d="M7999 3424 c-342 -347 -809 -574 -1329 -645 -110 -15 -431 -15 -540
0 -502 70 -941 275 -1281 598 -49 47 -92 83 -97 81 -29 -11 -392 -232 -392
-238 0 -4 62 -67 138 -141 515 -504 1176 -772 1902 -772 729 0 1384 267 1907
777 143 139 175 177 156 183 -7 3 -308 182 -379 225 -6 4 -44 -27 -85 -68z"/>
<path d="M1726 2710 c-262 -220 -406 -371 -442 -467 -53 -139 91 -159 433 -61
109 31 402 135 415 147 9 7 -262 473 -277 477 -5 2 -64 -42 -129 -96z"/>
<path d="M10800 2576 c-74 -128 -134 -237 -133 -242 2 -11 224 -94 372 -139
294 -90 467 -97 487 -20 22 89 -159 299 -480 556 -54 44 -101 79 -105 79 -3
-1 -67 -106 -141 -234z"/>
</g>
</svg>
