<?xml version="1.0" standalone="no"?>
<!DOCTYPE svg PUBLIC "-//W3C//DTD SVG 20010904//EN"
 "http://www.w3.org/TR/2001/REC-SVG-20010904/DTD/svg10.dtd">
<svg version="1.0" xmlns="http://www.w3.org/2000/svg"
 width="1280.000000pt" height="1280.000000pt" viewBox="0 0 1280.000000 1280.000000"
 preserveAspectRatio="xMidYMid meet">
<metadata>
Created by potrace 1.11, written by Peter Selinger 2001-2013
</metadata>
<g transform="translate(0.000000,1280.000000) scale(0.100000,-0.100000)"
fill="#000000" stroke="none">
<path d="M1350 10112 c-49 -24 -51 -63 -8 -144 62 -119 535 -565 559 -527 36
56 271 471 268 473 -2 2 -76 31 -164 63 -364 136 -569 178 -655 135z"/>
<path d="M11180 10005 c-135 -22 -339 -86 -615 -191 -9 -4 30 -81 127 -250
102 -179 143 -242 153 -237 38 22 245 202 353 307 147 144 215 237 216 297 1
33 -4 45 -24 60 -34 26 -108 31 -210 14z"/>
<path d="M2219 9622 c-68 -119 -136 -238 -152 -264 l-27 -48 132 -98 c822
-610 2095 -1370 3077 -1837 123 -58 228 -104 233 -103 6 2 20 35 32 73 53 166
175 336 306 428 l25 18 -30 25 c-68 55 -357 258 -620 433 -702 468 -1500 933
-2220 1294 -184 91 -551 264 -611 287 -19 7 -33 -13 -145 -208z"/>
<path d="M6020 9775 c-593 -74 -1108 -316 -1559 -732 l-73 -68 178 -108 c99
-59 191 -114 205 -123 26 -17 27 -16 120 61 795 663 1932 700 2774 90 55 -40
138 -107 183 -150 46 -42 89 -74 95 -72 7 3 99 57 206 120 l194 116 -98 96
c-417 410 -942 670 -1537 761 -146 22 -539 27 -688 9z"/>
<path d="M10175 9649 c-270 -120 -903 -436 -1210 -604 -734 -402 -1447 -842
-1966 -1214 l-107 -76 72 -75 c119 -125 184 -241 226 -403 15 -60 21 -72 37
-70 31 3 413 182 732 343 735 370 1523 829 2181 1271 225 150 494 340 524 369
19 19 17 23 -125 271 -79 138 -148 257 -154 264 -8 10 -52 -5 -210 -76z"/>
<path d="M6137 8204 c-97 -17 -209 -54 -306 -101 l-73 -35 33 -28 c19 -16 39
-29 46 -30 6 0 42 14 80 31 281 127 646 112 922 -37 l63 -35 40 27 c48 33 48
33 -82 99 -223 112 -486 152 -723 109z"/>
<path d="M3759 7922 c-20 -52 -78 -288 -93 -377 -56 -327 -50 -697 14 -1011
82 -399 250 -770 504 -1112 108 -146 378 -414 533 -530 294 -220 613 -372 972
-463 85 -22 155 -38 156 -37 1 2 5 108 7 235 l5 233 -41 10 c-98 24 -328 105
-423 150 -617 291 -1071 844 -1238 1506 -86 341 -88 742 -5 1081 l27 114 -36
19 c-20 10 -112 61 -204 114 l-168 95 -10 -27z"/>
<path d="M8865 7823 c-33 -19 -122 -69 -198 -111 -131 -71 -138 -77 -133 -101
47 -210 59 -321 60 -541 1 -234 -9 -330 -55 -530 -52 -222 -178 -519 -299
-705 -175 -266 -391 -484 -655 -660 -116 -77 -344 -191 -460 -231 -44 -15 -83
-30 -87 -33 -3 -3 -3 -112 0 -242 l7 -236 78 23 c462 138 916 422 1231 772
364 404 593 890 677 1433 30 193 33 580 6 764 -29 191 -88 436 -105 434 -4 0
-34 -17 -67 -36z"/>
<path d="M6218 7654 c-177 -38 -319 -146 -402 -304 -51 -98 -69 -171 -69 -280
0 -61 6 -116 17 -155 78 -266 312 -445 581 -445 389 0 672 366 575 744 -29
114 -73 190 -160 276 -88 89 -183 140 -302 164 -93 19 -151 19 -240 0z m229
-383 c119 -60 159 -211 87 -327 -81 -132 -276 -140 -371 -15 -59 76 -66 157
-22 249 52 107 194 150 306 93z"/>
<path d="M5196 7179 c-16 -83 -1 -267 34 -401 84 -323 335 -624 635 -758 38
-17 69 -29 71 -27 2 2 6 23 9 48 l5 44 -79 38 c-258 122 -477 388 -550 668
-27 104 -44 262 -37 330 l7 57 -41 16 c-22 9 -42 16 -44 16 -2 0 -6 -14 -10
-31z"/>
<path d="M7439 7114 l-36 -15 -6 -102 c-10 -182 -76 -378 -177 -527 -55 -81
-177 -209 -240 -252 -44 -29 -49 -37 -49 -68 1 -77 7 -77 94 -13 281 209 448
523 462 866 3 71 2 127 -3 126 -5 0 -25 -7 -45 -15z"/>
<path d="M6625 6240 c-148 -53 -317 -61 -474 -25 -35 9 -66 14 -68 12 -12 -13
-55 -583 -74 -1007 -16 -333 -16 -1412 -1 -1750 20 -437 63 -1003 90 -1195 l7
-50 306 -3 305 -2 17 167 c109 1066 114 2529 11 3628 -19 205 -25 255 -33 254
-3 -1 -42 -14 -86 -29z"/>
<path d="M6130 2032 c0 -30 55 -322 80 -427 124 -519 269 -533 394 -37 32 128
92 450 84 457 -2 2 -128 6 -280 10 -197 6 -278 5 -278 -3z"/>
</g>
</svg>
