<?xml version="1.0" encoding="utf-8"?>
<!-- Generator: Adobe Illustrator 16.0.1, SVG Export Plug-In . SVG Version: 6.00 Build 0)  -->
<!DOCTYPE svg PUBLIC "-//W3C//DTD SVG 1.1//EN" "http://www.w3.org/Graphics/SVG/1.1/DTD/svg11.dtd">
<svg version="1.1" id="Слой_1" xmlns="http://www.w3.org/2000/svg" xmlns:xlink="http://www.w3.org/1999/xlink" x="0px" y="0px"
	 width="50px" height="50px" viewBox="0 0 50 50" enable-background="new 0 0 50 50" xml:space="preserve">
<g>
	<path fill="#82888A" d="M32.853,49.35c-0.115,0-0.23-0.023-0.34-0.07l-5.896-2.567l-0.563,0.885
		c-0.156,0.245-0.426,0.393-0.717,0.393h-0.73c-0.297,0-0.573-0.155-0.727-0.409l-0.541-0.892l-5.882,2.537
		c-0.258,0.112-0.557,0.088-0.794-0.064c-0.238-0.151-0.385-0.411-0.392-0.693l-0.112-4.272c-0.007-0.276,0.121-0.54,0.342-0.705
		l5.31-3.946c-0.398-2.144-1.089-8.04-1.377-10.562L1.899,35.64c-0.256,0.095-0.542,0.057-0.767-0.099
		c-0.226-0.154-0.363-0.407-0.37-0.68L0.65,30.452c-0.008-0.305,0.148-0.591,0.41-0.749l6.743-4.081
		c0.026-1.356,0.309-2.596,0.783-3.425c0.163-0.285,0.475-0.45,0.802-0.425c0.634,0.049,1.369,0.058,1.989,0.001
		c0.339-0.022,0.657,0.141,0.82,0.435c0.102,0.184,0.195,0.386,0.278,0.604l1.387-0.838c0.037-1.268,0.312-2.464,0.768-3.32
		c0.159-0.297,0.47-0.474,0.813-0.448c0.344,0.025,0.682,0.019,1.06,0.025c0.31-0.003,0.648,0.001,0.933-0.024
		c0.323-0.035,0.641,0.132,0.807,0.414c0.1,0.17,0.192,0.356,0.274,0.559l1.419-0.846c-0.001-0.277-0.021-0.708-0.038-1.102
		c-0.146-3.263-0.488-10.905,3.701-15.744c0.303-0.353,0.721-0.839,1.366-0.839c0.58,0,1.001,0.387,1.372,0.805
		c4.244,4.849,3.89,12.531,3.738,15.812c-0.019,0.393-0.038,0.822-0.04,1.098l1.261,0.761c0.064-0.159,0.134-0.313,0.209-0.458
		c0.156-0.307,0.485-0.492,0.825-0.461c0.314,0.025,0.62,0.025,0.971,0.024c0.378,0,0.714,0.001,1.058-0.025
		c0.347-0.024,0.655,0.15,0.813,0.447c0.451,0.845,0.726,2.026,0.768,3.279l1.389,0.831c0.072-0.189,0.151-0.368,0.236-0.534
		c0.157-0.306,0.482-0.488,0.826-0.458c0.652,0.055,1.364,0.051,2.025,0c0.338-0.024,0.666,0.156,0.821,0.461
		c0.45,0.88,0.722,2.077,0.761,3.323l6.939,4.172c0.264,0.159,0.421,0.448,0.411,0.756l-0.141,4.41
		c-0.009,0.271-0.146,0.522-0.371,0.676c-0.226,0.152-0.509,0.19-0.766,0.097l-18.51-6.633c-0.287,2.453-0.997,8.402-1.379,10.535
		l5.315,3.95c0.224,0.167,0.352,0.432,0.343,0.71l-0.14,4.299c-0.009,0.282-0.157,0.541-0.396,0.691
		C33.169,49.306,33.011,49.35,32.853,49.35z M26.291,44.792c0.114,0,0.229,0.023,0.34,0.071l5.413,2.357l0.084-2.603l-5.392-4.007
		c-0.276-0.206-0.401-0.558-0.317-0.892c0.312-1.227,1.245-9.038,1.578-11.944c0.03-0.258,0.176-0.488,0.396-0.625
		c0.222-0.137,0.491-0.167,0.736-0.078l18.418,6.6l0.088-2.744l-6.948-4.178c-0.329-0.198-0.479-0.588-0.384-0.945
		c-0.007-0.834-0.14-1.649-0.366-2.297c-0.349,0.017-0.723,0.019-1.069,0.002c-0.075,0.22-0.14,0.461-0.189,0.716
		c-0.054,0.271-0.235,0.5-0.488,0.612s-0.546,0.096-0.782-0.047l-2.776-1.66c-0.311-0.186-0.47-0.548-0.396-0.902l0.01-0.049
		c-0.01-0.926-0.173-1.706-0.367-2.252c-0.348,0.005-0.721,0.006-1.068,0c-0.077,0.212-0.143,0.437-0.193,0.668
		c-0.059,0.268-0.242,0.491-0.494,0.599c-0.252,0.107-0.54,0.088-0.775-0.053l-2.523-1.524c-0.542-0.341-0.52-0.826-0.445-2.43
		c0.142-3.076,0.474-10.279-3.316-14.611c-0.029-0.033-0.055-0.062-0.079-0.087c-0.028,0.031-0.059,0.067-0.095,0.108
		c-3.747,4.329-3.426,11.497-3.29,14.557c0.072,1.609,0.094,2.094-0.436,2.427l-2.708,1.615c-0.237,0.141-0.526,0.158-0.778,0.048
		c-0.251-0.111-0.434-0.336-0.49-0.605c-0.055-0.263-0.122-0.503-0.2-0.713c-0.363,0.006-0.722,0.005-1.06,0
		c-0.201,0.563-0.368,1.374-0.368,2.337v0.19c0,0.298-0.156,0.574-0.411,0.728l-2.748,1.66c-0.237,0.144-0.53,0.163-0.783,0.05
		c-0.253-0.112-0.437-0.341-0.49-0.613c-0.056-0.283-0.125-0.542-0.206-0.771c-0.368,0.02-0.729,0.014-1.07-0.003
		c-0.222,0.613-0.35,1.441-0.35,2.324v0.272c0,0.298-0.156,0.573-0.41,0.728l-6.729,4.072l0.069,2.74l18.439-6.623
		c0.245-0.087,0.516-0.06,0.737,0.078s0.366,0.369,0.395,0.627c0.326,2.911,1.243,10.732,1.574,11.953
		c0.091,0.338-0.033,0.696-0.313,0.905l-5.394,4.009l0.067,2.575l5.408-2.333c0.389-0.169,0.843-0.024,1.064,0.34l0.571,0.942
		l0.593-0.931C25.734,44.935,26.009,44.792,26.291,44.792z"/>
</g>
</svg>
