<?xml version="1.0" encoding="utf-8"?>
<!-- Generator: Adobe Illustrator 16.0.1, SVG Export Plug-In . SVG Version: 6.00 Build 0)  -->
<!DOCTYPE svg PUBLIC "-//W3C//DTD SVG 1.1//EN" "http://www.w3.org/Graphics/SVG/1.1/DTD/svg11.dtd">
<svg version="1.1" id="Слой_1" xmlns="http://www.w3.org/2000/svg" xmlns:xlink="http://www.w3.org/1999/xlink" x="0px" y="0px"
	 width="200px" height="200px" viewBox="0 0 200 200" enable-background="new 0 0 200 200" xml:space="preserve">
<g>
	<path fill="#82888A" d="M131.744,197c-0.271,0-0.543-0.055-0.799-0.166l-24.96-10.87l-2.936,4.608
		c-0.367,0.577-1.003,0.926-1.687,0.926h-2.951c-0.699,0-1.348-0.365-1.71-0.963l-2.834-4.674L68.94,196.614
		c-0.608,0.265-1.31,0.206-1.869-0.15c-0.559-0.357-0.905-0.97-0.922-1.633l-0.453-17.272c-0.017-0.651,0.284-1.27,0.807-1.658
		l22.189-16.49c-1.642-8.104-4.931-36.543-5.924-45.278L6.129,141.657c-0.604,0.217-1.276,0.131-1.806-0.231
		c-0.53-0.362-0.853-0.958-0.87-1.6L3,122.002c-0.018-0.718,0.35-1.391,0.964-1.762l27.945-16.91
		c0.003-5.559,1.09-10.641,2.983-13.948c0.383-0.669,1.112-1.065,1.886-1c1.324,0.099,2.824,0.212,4.385,0.212
		c1.386,0,2.889-0.12,3.899-0.21c0.785-0.07,1.543,0.331,1.927,1.022c0.621,1.121,1.154,2.426,1.594,3.902l7.815-4.721
		c0.049-5.126,1.145-10.174,2.952-13.564c0.374-0.699,1.129-1.113,1.915-1.053c1.401,0.105,2.852,0.105,4.389,0.105
		c1.35,0,2.746,0,3.9-0.103c0.771-0.07,1.507,0.311,1.9,0.975c0.617,1.044,1.147,2.267,1.587,3.654l7.917-4.722
		c0.052-1.028-0.045-3.214-0.141-5.341c-0.583-13.021-1.946-43.514,14.612-62.64C96.592,4.542,97.916,3,99.863,3
		c1.775,0,3.198,1.332,4.47,2.772c16.771,19.161,15.355,49.81,14.752,62.898c-0.098,2.122-0.198,4.303-0.148,5.327l7.267,4.388
		c0.388-1.181,0.851-2.306,1.374-3.331c0.369-0.722,1.142-1.153,1.943-1.084c1.282,0.104,2.622,0.104,4.04,0.104
		c1.535,0,2.984,0,4.381-0.105c0.783-0.06,1.541,0.353,1.914,1.052c1.792,3.354,2.885,8.333,2.954,13.409l7.819,4.674
		c0.4-1.329,0.887-2.561,1.439-3.64c0.368-0.721,1.14-1.154,1.942-1.082c1.215,0.099,2.592,0.211,4.032,0.211
		c1.559,0,3.063-0.113,4.391-0.212c0.793-0.056,1.562,0.366,1.93,1.083c1.818,3.55,2.882,8.488,2.936,13.603l28.731,17.275
		c0.621,0.373,0.992,1.054,0.969,1.777l-0.569,17.828c-0.021,0.64-0.346,1.23-0.874,1.59s-1.197,0.443-1.8,0.229l-76.525-27.422
		c-1.015,8.715-4.37,37.112-5.935,45.165l22.207,16.503c0.525,0.392,0.827,1.016,0.806,1.671l-0.565,17.382
		c-0.021,0.662-0.37,1.271-0.931,1.625C132.488,196.896,132.117,197,131.744,197z M105.218,181.448c0.268,0,0.539,0.054,0.798,0.166
		l23.825,10.376l0.436-13.391l-22.4-16.647c-0.649-0.483-0.944-1.312-0.745-2.097c1.537-6.068,6.367-48.048,6.415-48.472
		c0.07-0.606,0.413-1.147,0.932-1.47c0.518-0.324,1.154-0.389,1.73-0.185l76.312,27.345l0.444-13.909l-28.81-17.322
		c-0.827-0.497-1.17-1.503-0.854-2.387c-0.002-4.013-0.721-8.008-1.954-10.986c-1.958,0.129-4.318,0.144-6.263,0.008
		c-0.498,1.218-0.907,2.617-1.202,4.114c-0.125,0.639-0.554,1.177-1.148,1.441c-0.595,0.265-1.281,0.224-1.84-0.11l-11.223-6.709
		c-0.732-0.438-1.106-1.294-0.931-2.129l0.072-0.344c-0.023-3.992-0.737-7.875-1.946-10.706c-2.055,0.077-4.21,0.08-6.268,0.004
		c-0.503,1.189-0.915,2.5-1.211,3.854c-0.138,0.63-0.571,1.155-1.164,1.41c-0.591,0.255-1.271,0.208-1.824-0.125l-10.2-6.161
		c-1.461-0.918-1.394-2.379-1.11-8.53c0.582-12.607,1.944-42.13-13.759-60.072c-0.821-0.929-1.255-1.255-1.449-1.369
		c-0.268,0.183-0.745,0.674-1.423,1.464C82.938,26.437,84.251,55.813,84.813,68.358c0.275,6.165,0.341,7.63-1.092,8.529
		l-10.92,6.514c-0.555,0.332-1.237,0.375-1.829,0.113c-0.592-0.26-1.022-0.791-1.154-1.424c-0.322-1.546-0.752-2.923-1.264-4.053
		c-0.967,0.037-1.976,0.037-2.901,0.037c-1.135,0-2.226,0-3.312-0.041c-1.229,2.882-1.945,6.85-1.945,10.912v0.771
		c0,0.7-0.366,1.35-0.966,1.712l-11.107,6.71c-0.558,0.337-1.246,0.38-1.842,0.118c-0.597-0.264-1.027-0.802-1.154-1.441
		c-0.33-1.668-0.76-3.121-1.283-4.335c-0.887,0.063-1.9,0.115-2.881,0.115c-1.186,0-2.309-0.057-3.35-0.127
		c-1.203,2.723-1.904,6.676-1.904,10.889v1.102c0,0.7-0.366,1.349-0.964,1.711L7.029,123.062l0.354,13.896l76.412-27.444
		c0.576-0.207,1.214-0.14,1.734,0.185c0.52,0.323,0.862,0.867,0.93,1.475c1.64,14.671,5.089,43.695,6.402,48.544
		c0.215,0.793-0.078,1.638-0.738,2.128l-22.402,16.647l0.349,13.28l23.813-10.272c0.916-0.397,1.985-0.055,2.502,0.799l3.153,5.2
		h0.728l3.264-5.124C103.907,181.781,104.552,181.448,105.218,181.448z"/>
</g>
</svg>
