<?xml version="1.0" encoding="utf-8"?>
<!-- Generator: Adobe Illustrator 16.0.1, SVG Export Plug-In . SVG Version: 6.00 Build 0)  -->
<!DOCTYPE svg PUBLIC "-//W3C//DTD SVG 1.1//EN" "http://www.w3.org/Graphics/SVG/1.1/DTD/svg11.dtd">
<svg version="1.1" id="Слой_1" xmlns="http://www.w3.org/2000/svg" xmlns:xlink="http://www.w3.org/1999/xlink" x="0px" y="0px"
	 width="50px" height="50px" viewBox="0 0 50 50" enable-background="new 0 0 50 50" xml:space="preserve">
<g>
	<path fill="#82888A" d="M32.853,49.5c-0.136,0-0.271-0.028-0.399-0.084L26.675,46.9l-0.495,0.776
		c-0.183,0.288-0.501,0.463-0.843,0.463h-0.73c-0.35,0-0.674-0.183-0.855-0.482l-0.473-0.78l-5.762,2.486
		c-0.304,0.132-0.655,0.103-0.934-0.075c-0.28-0.179-0.453-0.485-0.461-0.816l-0.112-4.272c-0.008-0.325,0.142-0.635,0.403-0.829
		l5.235-3.892c-0.393-2.175-1.045-7.714-1.341-10.291L1.95,35.78c-0.302,0.109-0.637,0.065-0.902-0.115
		c-0.265-0.182-0.427-0.479-0.435-0.8L0.5,30.456c-0.009-0.358,0.175-0.694,0.482-0.881l6.673-4.039
		c0.037-1.349,0.324-2.581,0.801-3.414c0.191-0.334,0.546-0.529,0.944-0.5c0.625,0.047,1.351,0.057,1.964,0.001
		c0.392-0.04,0.772,0.165,0.965,0.511c0.079,0.143,0.153,0.295,0.221,0.458l1.167-0.705c0.047-1.259,0.326-2.447,0.783-3.304
		c0.186-0.35,0.564-0.549,0.957-0.527c0.34,0.026,0.68,0.025,1.048,0.025c0.305-0.001,0.64,0.001,0.919-0.023
		c0.387-0.039,0.754,0.155,0.949,0.487c0.077,0.131,0.149,0.271,0.216,0.419l1.199-0.715c-0.004-0.271-0.021-0.656-0.037-1.01
		c-0.147-3.281-0.491-10.965,3.737-15.849C23.791,1.038,24.253,0.5,24.966,0.5c0.641,0,1.11,0.433,1.484,0.856
		c4.284,4.895,3.927,12.62,3.775,15.918c-0.017,0.354-0.034,0.737-0.039,1.007l1.039,0.627c0.047-0.106,0.096-0.209,0.146-0.31
		c0.184-0.36,0.558-0.576,0.972-0.542c0.311,0.025,0.624,0.022,0.958,0.024c0.357-0.001,0.705,0,1.046-0.025
		c0.407-0.023,0.771,0.178,0.957,0.526c0.452,0.847,0.73,2.018,0.782,3.264l1.168,0.698c0.056-0.134,0.115-0.262,0.178-0.383
		c0.185-0.36,0.554-0.58,0.972-0.539c0.643,0.052,1.348,0.049,2.001,0c0.396-0.031,0.783,0.183,0.967,0.542
		c0.449,0.879,0.725,2.066,0.773,3.304l6.869,4.131c0.311,0.187,0.496,0.526,0.484,0.889l-0.141,4.41
		c-0.01,0.319-0.173,0.614-0.437,0.794s-0.599,0.223-0.899,0.115l-18.333-6.57c-0.301,2.572-0.964,8.106-1.343,10.267l5.242,3.895
		c0.263,0.196,0.413,0.508,0.402,0.835l-0.14,4.299c-0.011,0.331-0.185,0.636-0.465,0.813C33.225,49.447,33.039,49.5,32.853,49.5z
		 M26.291,44.643c0.134,0,0.27,0.027,0.399,0.084l5.211,2.269l0.075-2.304l-5.33-3.96c-0.325-0.242-0.472-0.656-0.372-1.049
		c0.31-1.219,1.241-9.021,1.574-11.925c0.035-0.303,0.206-0.573,0.466-0.734c0.258-0.16,0.577-0.195,0.864-0.093l18.226,6.531
		l0.078-2.451l-6.872-4.133c-0.383-0.229-0.558-0.676-0.457-1.092c-0.008-0.766-0.124-1.515-0.322-2.124
		c-0.279,0.012-0.578,0.013-0.857,0.002c-0.053,0.168-0.104,0.364-0.149,0.59c-0.063,0.319-0.276,0.588-0.574,0.72
		c-0.297,0.132-0.64,0.112-0.919-0.055l-2.776-1.66c-0.366-0.218-0.553-0.645-0.466-1.062l0.007-0.033
		c-0.011-0.847-0.15-1.564-0.323-2.086c-0.281,0.003-0.579,0.004-0.857,0c-0.06,0.176-0.111,0.361-0.152,0.549
		c-0.069,0.315-0.285,0.577-0.582,0.705c-0.296,0.126-0.636,0.103-0.911-0.063l-2.523-1.524c-0.618-0.389-0.593-0.938-0.518-2.564
		c0.141-3.048,0.47-10.175-3.245-14.465c-3.69,4.286-3.372,11.395-3.236,14.433c0.073,1.631,0.098,2.181-0.506,2.56l-2.711,1.617
		c-0.277,0.167-0.619,0.188-0.915,0.057c-0.296-0.13-0.511-0.396-0.577-0.712c-0.044-0.215-0.098-0.414-0.158-0.592
		c-0.292,0.004-0.576,0.003-0.849,0c-0.18,0.543-0.324,1.297-0.324,2.187v0.19c0,0.35-0.183,0.675-0.482,0.855l-2.748,1.66
		c-0.279,0.169-0.622,0.19-0.921,0.059c-0.298-0.132-0.513-0.401-0.577-0.721c-0.046-0.233-0.101-0.45-0.165-0.645
		c-0.298,0.011-0.585,0.007-0.861-0.003C9.761,24.245,9.65,25.012,9.65,25.83v0.272c0,0.35-0.183,0.674-0.482,0.855l-6.654,4.027
		l0.062,2.446l18.244-6.553c0.289-0.105,0.607-0.069,0.867,0.092c0.259,0.162,0.431,0.434,0.465,0.737
		c0.47,4.202,1.276,10.847,1.569,11.931c0.107,0.396-0.039,0.818-0.369,1.064l-5.331,3.962l0.06,2.277l5.206-2.246
		c0.457-0.198,0.992-0.027,1.251,0.4l0.447,0.736l0.464-0.728C25.637,44.81,25.958,44.643,26.291,44.643z"/>
</g>
</svg>
