<?xml version="1.0" standalone="no"?>
<!DOCTYPE svg PUBLIC "-//W3C//DTD SVG 20010904//EN"
 "http://www.w3.org/TR/2001/REC-SVG-20010904/DTD/svg10.dtd">
<svg version="1.0" xmlns="http://www.w3.org/2000/svg"
 width="826.000000pt" height="206.000000pt" viewBox="0 0 826.000000 206.000000"
 preserveAspectRatio="xMidYMid meet">
<metadata>
Created by potrace 1.12, written by Peter Selinger 2001-2015
</metadata>
<g transform="translate(0.000000,206.000000) scale(0.100000,-0.100000)"
fill="#000000" stroke="none">
<path d="M1135 1938 c-28 -100 -36 -225 -42 -650 l-5 -428 86 0 86 0 -5 218
c-12 475 -37 813 -65 887 -16 41 -38 30 -55 -27z"/>
<path d="M1340 1228 l0 -53 58 -24 c79 -34 199 -154 233 -233 l24 -58 52 0 53
0 -20 51 c-53 142 -169 266 -306 330 -45 22 -85 39 -88 39 -3 0 -6 -24 -6 -52z"/>
<path d="M925 1246 c-146 -69 -276 -217 -320 -363 -6 -22 -3 -23 43 -23 l49 0
33 67 c41 83 136 180 213 218 l57 27 0 49 c0 57 -4 58 -75 25z"/>
<path d="M7909 1022 c-42 -21 -61 -40 -86 -82 -46 -76 -45 -80 33 -80 61 0 68
2 95 31 26 28 34 31 70 26 22 -3 48 -12 58 -21 16 -14 20 -12 54 34 l36 49
-30 25 c-62 52 -151 59 -230 18z"/>
<path d="M2386 963 c-9 -37 -19 -76 -22 -85 -5 -16 2 -18 51 -18 48 0 57 3 65
23 l9 22 0 -22 c1 -21 6 -23 61 -23 69 0 67 -4 42 95 l-18 70 -86 3 -85 3 -17
-68z"/>
<path d="M2863 945 l21 -85 71 0 71 0 -15 85 -14 85 -77 0 -77 0 20 -85z"/>
<path d="M3156 1018 c-7 -22 -26 -130 -26 -145 0 -11 15 -13 67 -11 l67 3 18
75 c9 41 17 78 18 83 0 13 -140 8 -144 -5z"/>
<path d="M3492 948 l3 -83 68 -3 67 -3 0 86 0 85 -70 0 -71 0 3 -82z"/>
<path d="M3947 953 c-9 -43 -17 -81 -17 -85 0 -5 25 -8 55 -8 46 0 55 3 55 18
1 16 1 16 14 -1 11 -14 25 -17 68 -15 l54 3 -19 83 -19 82 -86 0 -87 0 -18
-77z"/>
<path d="M4400 975 l0 -55 55 0 c54 0 55 0 55 -30 l0 -30 65 0 65 0 0 30 c0
30 1 30 55 30 l55 0 0 55 0 55 -175 0 -175 0 0 -55z"/>
<path d="M4940 946 l0 -86 65 0 65 0 0 30 c0 28 2 30 38 30 38 0 72 -23 72
-48 0 -8 23 -12 70 -12 l70 0 -7 33 c-9 49 -29 83 -65 109 -30 21 -45 23 -170
26 l-138 4 0 -86z"/>
<path d="M5620 988 c-6 -24 -15 -59 -21 -78 -13 -51 -14 -50 42 -50 38 0 55 5
65 18 13 16 13 16 14 0 0 -15 10 -18 60 -18 33 0 60 3 60 8 0 4 -4 23 -9 42
-6 19 -15 54 -21 78 l-11 42 -84 0 -84 0 -11 -42z"/>
<path d="M6130 946 l0 -86 70 0 70 0 0 31 c0 31 1 31 38 24 20 -3 48 -17 63
-31 21 -20 35 -24 92 -24 79 0 82 6 35 76 -51 74 -88 88 -240 92 l-128 4 0
-86z"/>
<path d="M6770 945 l0 -85 65 0 65 0 0 85 0 85 -65 0 -65 0 0 -85z"/>
<path d="M7150 945 l0 -85 105 0 c58 0 105 2 105 4 0 2 -14 41 -31 85 l-31 81
-74 0 -74 0 0 -85z"/>
<path d="M7440 945 l0 -85 55 0 55 0 0 85 0 85 -55 0 -55 0 0 -85z"/>
<path d="M585 788 c-3 -29 -5 -82 -3 -118 l3 -65 45 0 45 0 1 67 c1 37 4 90 8
118 l7 50 -50 0 -50 0 -6 -52z"/>
<path d="M1016 797 c-14 -24 -26 -55 -26 -68 0 -20 -13 -32 -67 -64 -121 -69
-124 -65 37 -65 l143 0 -24 26 c-19 20 -24 37 -24 75 0 42 5 53 33 81 28 28
39 33 82 33 42 0 54 -5 81 -31 42 -42 50 -100 19 -148 l-22 -36 144 0 c91 0
138 4 128 10 -8 5 -49 28 -90 52 -62 36 -75 48 -81 75 -3 17 -15 46 -26 65
l-19 33 -131 3 -132 3 -25 -44z"/>
<path d="M1671 803 c5 -21 9 -72 9 -114 0 -83 4 -89 60 -89 25 0 30 5 36 36 7
38 -1 178 -12 195 -3 5 -27 9 -54 9 l-48 0 9 -37z"/>
<path d="M2331 743 c-12 -54 -24 -108 -27 -120 l-6 -23 186 0 c160 0 186 2
186 15 0 9 -12 63 -26 120 l-26 105 -59 0 c-67 0 -65 4 -44 -90 22 -101 23
-100 -36 -100 -43 0 -50 2 -45 18 2 9 10 44 16 77 6 33 14 68 16 78 5 15 -2
17 -54 17 l-59 0 -22 -97z"/>
<path d="M2897 813 c3 -16 16 -68 28 -118 l20 -90 63 -3 c56 -3 62 -1 62 16 0
17 -17 113 -36 200 -4 20 -10 22 -74 22 l-70 0 7 -27z"/>
<path d="M3101 727 c-11 -63 -21 -117 -21 -120 0 -4 26 -7 59 -7 l59 0 30 120
30 120 -68 0 -68 0 -21 -113z"/>
<path d="M3492 723 l3 -118 68 -3 67 -3 0 121 0 120 -70 0 -71 0 3 -117z"/>
<path d="M3911 803 c-6 -21 -19 -74 -29 -118 l-19 -80 185 -3 c102 -1 187 -1
189 2 2 2 -9 55 -25 117 l-28 114 -63 3 c-56 3 -62 1 -58 -15 3 -10 11 -45 17
-78 6 -33 14 -68 16 -77 5 -16 -2 -18 -45 -18 -58 0 -56 -3 -36 90 22 102 23
100 -40 100 l-54 0 -10 -37z"/>
<path d="M4510 720 l0 -120 65 0 65 0 0 120 0 120 -65 0 -65 0 0 -120z"/>
<path d="M4940 720 l0 -120 65 0 65 0 0 35 c0 30 3 35 24 35 18 0 25 -8 32
-32 10 -33 10 -33 78 -36 53 -2 67 0 64 10 -33 89 -33 87 -10 104 26 18 42 47
53 91 l7 33 -69 0 c-62 0 -69 -2 -69 -19 0 -27 -37 -51 -77 -51 -31 0 -33 2
-33 35 l0 35 -65 0 -65 0 0 -120z"/>
<path d="M5556 728 c-14 -62 -26 -116 -26 -120 0 -5 83 -8 185 -8 102 0 185 3
185 8 0 4 -12 58 -27 120 l-27 112 -58 0 c-66 0 -64 6 -43 -103 8 -43 15 -81
15 -83 0 -2 -22 -4 -50 -4 -27 0 -50 3 -50 8 1 4 9 46 19 95 l18 87 -57 0 -58
0 -26 -112z"/>
<path d="M6132 723 l3 -118 68 -3 67 -3 0 121 0 120 -70 0 -71 0 3 -117z"/>
<path d="M6405 748 c0 -51 -4 -105 -9 -120 l-8 -28 70 0 c39 0 73 4 76 8 10
17 18 142 12 186 l-7 46 -67 0 -67 0 0 -92z"/>
<path d="M6770 720 l0 -120 65 0 65 0 0 120 0 120 -65 0 -65 0 0 -120z"/>
<path d="M7150 720 l0 -120 60 0 60 0 1 98 0 97 37 -97 36 -98 103 0 103 0 0
120 0 120 -55 0 -54 0 -3 -87 -3 -88 -31 85 -31 85 -112 3 -111 3 0 -121z"/>
<path d="M7775 785 c-7 -50 -2 -124 11 -167 4 -15 17 -18 76 -18 63 0 69 2 63
18 -15 37 -22 120 -16 170 l7 52 -67 0 -68 0 -6 -55z"/>
<path d="M1129 775 c-58 -32 -56 -121 3 -151 84 -43 168 60 106 130 -28 32
-74 41 -109 21z"/>
<path d="M7990 730 l0 -60 35 0 c33 0 35 -2 35 -35 l0 -35 55 0 55 0 0 95 0
95 -90 0 -90 0 0 -60z"/>
<path d="M620 483 c-301 -185 -570 -380 -570 -413 0 -62 318 80 820 368 91 52
170 99 177 104 7 6 23 3 44 -8 41 -21 116 -21 156 0 l31 16 239 -131 c408
-224 731 -374 763 -354 42 26 -67 119 -355 302 -77 49 -188 117 -247 151
l-106 62 -399 -1 -398 0 -155 -96z"/>
<path d="M2276 515 c-9 -35 -16 -67 -16 -70 0 -3 30 -5 67 -3 l68 3 10 50 11
50 64 3 c71 3 75 0 85 -65 l6 -43 71 0 71 0 -7 32 c-3 18 -11 49 -17 70 l-10
38 -193 0 -194 0 -16 -65z"/>
<path d="M2969 513 l17 -68 86 -3 85 -3 17 65 c9 36 16 68 16 71 0 3 -54 5
-119 5 l-119 0 17 -67z"/>
<path d="M3490 510 l0 -70 70 0 70 0 0 70 0 70 -70 0 -70 0 0 -70z"/>
<path d="M3855 568 c-2 -7 -11 -39 -19 -70 l-14 -58 68 0 69 0 11 55 11 55 65
0 c43 0 66 -4 69 -12 2 -7 9 -32 15 -55 l11 -43 70 0 c53 0 70 3 66 13 -2 6
-10 38 -17 70 l-13 57 -194 0 c-146 0 -195 -3 -198 -12z"/>
<path d="M4510 510 l0 -70 65 0 65 0 0 70 0 70 -65 0 -65 0 0 -70z"/>
<path d="M4940 510 l0 -70 65 0 65 0 0 70 0 70 -65 0 -65 0 0 -70z"/>
<path d="M5150 572 c0 -4 9 -36 21 -70 l21 -62 70 0 c78 0 75 -7 38 90 l-18
45 -66 3 c-36 2 -66 -1 -66 -6z"/>
<path d="M5511 542 c-6 -21 -14 -52 -17 -70 l-6 -32 65 0 66 0 11 43 c6 23 13
48 15 55 3 8 26 12 69 12 l65 0 11 -55 11 -55 70 0 c38 0 69 2 69 5 0 3 -7 35
-16 70 l-16 65 -194 0 -193 0 -10 -38z"/>
<path d="M6130 510 l0 -70 118 0 c102 0 123 3 169 24 46 22 103 82 103 109 0
9 -134 3 -207 -8 -29 -5 -43 -3 -43 4 0 7 -26 11 -70 11 l-70 0 0 -70z"/>
<path d="M6770 510 l0 -70 65 0 65 0 0 70 0 70 -65 0 -65 0 0 -70z"/>
<path d="M7150 510 l0 -70 60 0 60 0 0 70 0 70 -60 0 -60 0 0 -70z"/>
<path d="M7360 573 c0 -5 10 -36 22 -70 l23 -63 72 0 73 0 0 70 0 70 -95 0
c-52 0 -95 -3 -95 -7z"/>
<path d="M7800 572 c0 -12 29 -53 64 -90 59 -63 172 -76 274 -31 l43 18 -3 53
-3 53 -53 3 c-37 2 -57 -1 -68 -12 -19 -20 -64 -20 -90 -1 -20 15 -164 22
-164 7z"/>
<path d="M802 294 l-43 -26 48 -37 c219 -174 548 -171 752 7 l44 38 -44 23
-44 23 -52 -35 c-96 -65 -153 -81 -283 -81 -129 0 -187 16 -281 80 -28 19 -52
34 -53 34 0 0 -20 -12 -44 -26z"/>
</g>
</svg>
