<?xml version="1.0" standalone="no"?>
<!DOCTYPE svg PUBLIC "-//W3C//DTD SVG 20010904//EN"
 "http://www.w3.org/TR/2001/REC-SVG-20010904/DTD/svg10.dtd">
<svg version="1.0" xmlns="http://www.w3.org/2000/svg"
 width="500.000000pt" height="500.000000pt" viewBox="0 0 500.000000 500.000000"
 preserveAspectRatio="xMidYMid meet">
<metadata>
Created by potrace 1.11, written by Peter Selinger 2001-2013
</metadata>
<g transform="translate(0.000000,500.000000) scale(0.100000,-0.100000)"
fill="#000000" stroke="none">
<path d="M2488 4230 c-22 -14 -53 -98 -72 -200 -23 -120 -31 -110 87 -110
l104 0 -9 58 c-25 165 -73 274 -110 252z"/>
<path d="M2371 3698 c-32 -374 -32 -986 -1 -1303 5 -55 10 -103 10 -107 0 -4
14 -2 30 4 28 9 164 8 200 -3 18 -5 23 38 40 371 18 331 6 829 -26 1123 l-6
57 -117 0 -118 0 -12 -142z"/>
<path d="M2185 2965 c-145 -46 -288 -128 -407 -235 -132 -118 -255 -326 -304
-515 -22 -82 -27 -125 -28 -235 -1 -130 17 -285 35 -296 5 -2 40 12 79 33 l71
38 -8 65 c-5 36 -7 111 -6 167 5 347 228 661 563 794 l85 34 -5 86 -5 86 -70
-22z"/>
<path d="M2740 2901 l0 -88 84 -31 c289 -110 509 -384 557 -692 11 -72 8 -268
-5 -300 -4 -11 16 -27 73 -57 l79 -43 12 53 c19 79 24 275 10 369 -49 338
-266 636 -575 790 -59 30 -103 46 -222 83 -10 3 -13 -18 -13 -84z"/>
<path d="M2434 2176 c-58 -18 -102 -54 -132 -106 -35 -59 -37 -154 -5 -215 70
-133 245 -166 355 -67 150 136 73 374 -128 396 -29 3 -66 0 -90 -8z m117 -136
c10 -6 26 -24 35 -41 39 -77 -39 -159 -119 -125 -41 17 -57 42 -57 89 0 63 82
108 141 77z"/>
<path d="M1935 1821 c-377 -184 -835 -454 -1092 -643 l-52 -38 45 -77 c25 -43
52 -88 60 -100 l14 -22 56 25 c228 101 566 279 829 437 178 106 465 296 465
306 0 5 -9 16 -21 27 -27 25 -65 100 -74 147 -4 20 -12 37 -19 37 -6 0 -101
-45 -211 -99z"/>
<path d="M2839 1878 c-13 -52 -39 -103 -72 -143 l-25 -29 92 -64 c127 -88 346
-225 533 -333 151 -86 639 -335 700 -357 30 -10 30 -10 87 90 56 95 57 100 40
114 -114 87 -496 328 -739 464 -127 71 -582 300 -597 300 -4 0 -12 -19 -19
-42z"/>
<path d="M2732 1610 c-34 -28 -128 -60 -197 -67 -73 -7 -150 8 -217 42 -51 26
-78 31 -78 17 0 -11 90 -56 145 -73 57 -18 180 -16 245 4 65 19 154 73 145 87
-9 14 -17 12 -43 -10z"/>
<path d="M3094 1302 c-177 -164 -451 -253 -682 -223 -48 6 -114 18 -147 26
-95 25 -238 100 -326 171 -44 36 -84 64 -87 62 -4 -2 -38 -21 -76 -42 l-69
-40 65 -62 c361 -341 906 -387 1322 -110 75 50 206 167 206 184 0 4 -12 14
-28 23 -15 8 -47 27 -72 41 l-45 26 -61 -56z"/>
<path d="M649 1027 c-80 -69 -125 -118 -142 -155 -15 -33 6 -44 70 -37 49 5
230 59 245 73 6 6 -75 158 -93 176 -3 4 -39 -22 -80 -57z"/>
<path d="M4223 1000 l-52 -89 56 -21 c93 -35 201 -61 236 -58 25 2 33 8 35 27
3 20 -16 44 -103 128 -59 57 -110 103 -113 103 -4 0 -30 -40 -59 -90z"/>
</g>
</svg>
